{
  "accessors": [
    {
      "bufferView": 3,
      "componentType": 5126,
      "count": 170,
      "max": [
        0.98830002546310425,
        1.63496994972229,
        0.20126000046730042
      ],
      "min": [
        -1.2330499887466431,
        -1.6376899480819702,
        0.0093400049954652786
      ],
      "type": "VEC3"
    },
    {
      "bufferView": 3,
      "byteOffset": 2040,
      "componentType": 5126,
      "count": 170,
      "max": [
        0.99630528688430786,
        1,
        0.99999934434890747
      ],
      "min": [
        -0.99244284629821777,
        -1,
        -0.99995201826095581
      ],
      "type": "VEC3"
    },
    {
      "bufferView": 4,
      "componentType": 5126,
      "count": 170,
      "max": [
        1,
        0.98050868511199951,
        0.99702906608581543,
        1
      ],
      "min": [
        -0.99995207786560059,
        -1,
        -0.99958449602127075,
        1
      ],
      "type": "VEC4"
    },
    {
      "bufferView": 2,
      "componentType": 5126,
      "count": 170,
      "max": [
        0.99094998836517334,
        0.99663001298904419
      ],
      "min": [
        0.003759999992325902,
        0.0091099999845027924
      ],
      "type": "VEC2"
    },
    {
      "bufferView": 1,
      "componentType": 5125,
      "count": 348,
      "max": [
        169
      ],
      "min": [
        0
      ],
      "type": "SCALAR"
    },
    {
      "bufferView": 3,
      "byteOffset": 4080,
      "componentType": 5126,
      "count": 197,
      "max": [
        1.0558899641036987,
        1.6291899681091309,
        2.3526501655578613
      ],
      "min": [
        0.90276998281478882,
        -1.6324100494384766,
        0.12313000112771988
      ],
      "type": "VEC3"
    },
    {
      "bufferView": 3,
      "byteOffset": 6444,
      "componentType": 5126,
      "count": 197,
      "max": [
        0.99999517202377319,
        1,
        0.98393982648849487
      ],
      "min": [
        -0.99999886751174927,
        -1,
        -0.99173164367675781
      ],
      "type": "VEC3"
    },
    {
      "bufferView": 4,
      "byteOffset": 2720,
      "componentType": 5126,
      "count": 197,
      "max": [
        0.98877209424972534,
        0.015730977058410645,
        0.98019379377365112,
        1
      ],
      "min": [
        -0.97547692060470581,
        -1,
        -0.99172008037567139,
        1
      ],
      "type": "VEC4"
    },
    {
      "bufferView": 2,
      "byteOffset": 1360,
      "componentType": 5126,
      "count": 197,
      "max": [
        0.99940001964569092,
        0.99545997381210327
      ],
      "min": [
        0.011250000447034836,
        0.0045400001108646393
      ],
      "type": "VEC2"
    },
    {
      "bufferView": 1,
      "byteOffset": 1392,
      "componentType": 5125,
      "count": 483,
      "max": [
        196
      ],
      "min": [
        0
      ],
      "type": "SCALAR"
    },
    {
      "bufferView": 5,
      "componentType": 5126,
      "count": 3,
      "max": [
        1,
        0,
        0,
        0,
        0,
        1,
        0,
        0,
        0,
        1,
        1,
        0,
        0,
        0,
        0,
        1
      ],
      "min": [
        1,
        0,
        0,
        0,
        0,
        0,
        -1,
        0,
        0,
        0,
        0,
        0,
        -0.95809000730514526,
        -0.16280999779701233,
        0,
        1
      ],
      "type": "MAT4"
    },
    {
      "bufferView": 0,
      "componentType": 5123,
      "count": 170,
      "max": [
        1,
        1,
        1,
        1
      ],
      "min": [
        1,
        1,
        1,
        1
      ],
      "type": "VEC4"
    },
    {
      "bufferView": 4,
      "byteOffset": 5872,
      "componentType": 5126,
      "count": 170,
      "max": [
        1,
        0,
        0,
        0
      ],
      "min": [
        1,
        0,
        0,
        0
      ],
      "type": "VEC4"
    },
    {
      "bufferView": 0,
      "byteOffset": 1360,
      "componentType": 5123,
      "count": 197,
      "max": [
        2,
        2,
        2,
        2
      ],
      "min": [
        2,
        2,
        2,
        2
      ],
      "type": "VEC4"
    },
    {
      "bufferView": 4,
      "byteOffset": 8592,
      "componentType": 5126,
      "count": 197,
      "max": [
        1,
        0,
        0,
        0
      ],
      "min": [
        1,
        0,
        0,
        0
      ],
      "type": "VEC4"
    },
    {
      "bufferView": 6,
      "componentType": 5126,
      "count": 1,
      "max": [
        0
      ],
      "min": [
        0
      ],
      "type": "SCALAR"
    },
    {
      "bufferView": 7,
      "componentType": 5126,
      "count": 1,
      "max": [
        0.70710676908493042,
        0,
        0,
        0.70710676908493042
      ],
      "min": [
        0.70710676908493042,
        0,
        0,
        0.70710676908493042
      ],
      "type": "VEC4"
    },
    {
      "bufferView": 6,
      "byteOffset": 4,
      "componentType": 5126,
      "count": 83,
      "max": [
        8.3333301544189453
      ],
      "min": [
        0
      ],
      "type": "SCALAR"
    },
    {
      "bufferView": 7,
      "byteOffset": 16,
      "componentType": 5126,
      "count": 83,
      "max": [
        0,
        0,
        0.70710676908493042,
        1
      ],
      "min": [
        0,
        0,
        0,
        0.70710676908493042
      ],
      "type": "VEC4"
    }
  ],
  "animations": [
    {
      "channels": [
        {
          "sampler": 0,
          "target": {
            "node": 7,
            "path": "rotation"
          }
        },
        {
          "sampler": 1,
          "target": {
            "node": 8,
            "path": "rotation"
          }
        }
      ],
      "name": "ArmatureAction",
      "samplers": [
        {
          "input": 15,
          "interpolation": "LINEAR",
          "output": 16
        },
        {
          "input": 17,
          "interpolation": "LINEAR",
          "output": 18
        }
      ]
    }
  ],
  "asset": {
    "extras": {
      "author": "nikhilmohan (https://sketchfab.com/nikhilmohan.1)",
      "license": "CC-BY-4.0 (http://creativecommons.org/licenses/by/4.0/)",
      "source": "https://sketchfab.com/3d-models/notebook-low-poly-version-3d-model-57a29e53b1f94410b9ba7c7403f9c91e",
      "title": "Notebook Low-Poly Version 3D Model"
    },
    "generator": "Sketchfab-9.53.0",
    "version": "2.0"
  },
  "bufferViews": [
    {
      "buffer": 0,
      "byteLength": 2936,
      "byteOffset": 0,
      "byteStride": 8,
      "name": "shortBufferViews",
      "target": 34962
    },
    {
      "buffer": 0,
      "byteLength": 3324,
      "byteOffset": 2936,
      "name": "floatBufferViews",
      "target": 34963
    },
    {
      "buffer": 0,
      "byteLength": 2936,
      "byteOffset": 6260,
      "byteStride": 8,
      "name": "floatBufferViews",
      "target": 34962
    },
    {
      "buffer": 0,
      "byteLength": 8808,
      "byteOffset": 9196,
      "byteStride": 12,
      "name": "floatBufferViews",
      "target": 34962
    },
    {
      "buffer": 0,
      "byteLength": 11744,
      "byteOffset": 18004,
      "byteStride": 16,
      "name": "floatBufferViews",
      "target": 34962
    },
    {
      "buffer": 0,
      "byteLength": 192,
      "byteOffset": 29748,
      "byteStride": 64,
      "name": "floatBufferViews"
    },
    {
      "buffer": 0,
      "byteLength": 336,
      "byteOffset": 29940,
      "name": "floatBufferViews"
    },
    {
      "buffer": 0,
      "byteLength": 1344,
      "byteOffset": 30276,
      "byteStride": 16,
      "name": "floatBufferViews"
    }
  ],
  "buffers": [
    {
      "byteLength": 31620,
      "uri": "scene.bin"
    }
  ],
  "images": [
    {
      "uri": "textures/Lowpoly_Body_baseColor.jpeg"
    },
    {
      "uri": "textures/Lowpoly_Body_normal.png"
    },
    {
      "uri": "textures/Lowpoly_Screen_baseColor.jpeg"
    },
    {
      "uri": "textures/Lowpoly_Screen_normal.png"
    }
  ],
  "materials": [
    {
      "doubleSided": true,
      "emissiveFactor": [
        0,
        0,
        0
      ],
      "name": "Lowpoly_Body",
      "normalTexture": {
        "index": 1,
        "scale": 1,
        "texCoord": 0
      },
      "pbrMetallicRoughness": {
        "baseColorFactor": [
          1,
          1,
          1,
          1
        ],
        "baseColorTexture": {
          "index": 0,
          "texCoord": 0
        },
        "metallicFactor": 0,
        "roughnessFactor": 0.59999999999999998
      }
    },
    {
      "doubleSided": true,
      "emissiveFactor": [
        0,
        0,
        0
      ],
      "name": "Lowpoly_Screen",
      "normalTexture": {
        "index": 3,
        "scale": 1,
        "texCoord": 0
      },
      "pbrMetallicRoughness": {
        "baseColorFactor": [
          1,
          1,
          1,
          1
        ],
        "baseColorTexture": {
          "index": 2,
          "texCoord": 0
        },
        "metallicFactor": 0,
        "roughnessFactor": 0.59999999999999998
      }
    }
  ],
  "meshes": [
    {
      "name": "Lowpoly_Notebook",
      "primitives": [
        {
          "attributes": {
            "JOINTS_0": 11,
            "NORMAL": 1,
            "POSITION": 0,
            "TANGENT": 2,
            "TEXCOORD_0": 3,
            "TEXCOORD_1": 3,
            "TEXCOORD_2": 3,
            "TEXCOORD_3": 3,
            "WEIGHTS_0": 12
          },
          "indices": 4,
          "material": 0,
          "mode": 4
        }
      ]
    },
    {
      "name": "Lowpoly_Notebook",
      "primitives": [
        {
          "attributes": {
            "JOINTS_0": 13,
            "NORMAL": 6,
            "POSITION": 5,
            "TANGENT": 7,
            "TEXCOORD_0": 8,
            "TEXCOORD_1": 8,
            "TEXCOORD_2": 8,
            "TEXCOORD_3": 8,
            "WEIGHTS_0": 14
          },
          "indices": 9,
          "material": 1,
          "mode": 4
        }
      ]
    }
  ],
  "nodes": [
    {
      "children": [
        1
      ],
      "name": "RootNode (gltf orientation matrix)",
      "rotation": [
        -0.70710678118654746,
        -0,
        -0,
        0.70710678118654757
      ]
    },
    {
      "children": [
        2
      ],
      "name": "RootNode (model correction matrix)"
    },
    {
      "children": [
        3,
        5
      ],
      "name": "Root"
    },
    {
      "children": [
        4
      ],
      "matrix": [
        0.89087000000000016,
        -0.22621000000000005,
        0.39393000000000006,
        0,
        0.033480000000000003,
        0.8975200000000001,
        0.43970000000000004,
        0,
        -0.45302000000000003,
        -0.37853000000000003,
        0.80715000000000003,
        0,
        -0.38378000000000007,
        -1.6136599999999999,
        1.85484,
        1
      ],
      "name": "Hemi"
    },
    {
      "name": "Hemi"
    },
    {
      "children": [
        6,
        10,
        11,
        9
      ],
      "matrix": [
        1,
        0,
        0,
        0,
        0,
        1,
        0,
        0,
        0,
        0,
        1,
        0,
        -0.7664700000000001,
        -0,
        -0.13025,
        1
      ],
      "name": "Armature"
    },
    {
      "children": [
        7
      ],
      "name": "Armature_rootJoint"
    },
    {
      "children": [
        8
      ],
      "name": "Bone_Armature",
      "rotation": [
        0.7071068286895752,
        0,
        0,
        0.7071068286895752
      ],
      "scale": [
        1,
        1,
        1
      ],
      "translation": [
        0,
        0,
        0
      ]
    },
    {
      "name": "Bone.001_Armature",
      "rotation": [
        0,
        0,
        0,
        1
      ],
      "scale": [
        1,
        1,
        1
      ],
      "translation": [
        0.95809000730514526,
        0.16280999779701233,
        0
      ]
    },
    {
      "matrix": [
        1,
        0,
        0,
        0,
        0,
        1,
        0,
        0,
        0,
        0,
        1,
        0,
        0.95809000000000011,
        0,
        0.16281000000000004,
        1
      ],
      "name": "Lowpoly_Notebook"
    },
    {
      "mesh": 0,
      "name": "Lowpoly_Notebook_0",
      "skin": 0
    },
    {
      "mesh": 1,
      "name": "Lowpoly_Notebook_1",
      "skin": 0
    }
  ],
  "samplers": [
    {
      "magFilter": 9729,
      "minFilter": 9987,
      "wrapS": 10497,
      "wrapT": 10497
    }
  ],
  "scene": 0,
  "scenes": [
    {
      "name": "OSG_Scene",
      "nodes": [
        0
      ]
    }
  ],
  "skins": [
    {
      "inverseBindMatrices": 10,
      "joints": [
        6,
        7,
        8
      ],
      "skeleton": 6
    }
  ],
  "textures": [
    {
      "sampler": 0,
      "source": 0
    },
    {
      "sampler": 0,
      "source": 1
    },
    {
      "sampler": 0,
      "source": 2
    },
    {
      "sampler": 0,
      "source": 3
    }
  ]
}

